# xmcd
#
# Track frame offsets: 
#        150
#        13007
#        32687
#        42387
#        68570
#        87027
#        99950
#        119004
#        142722
#        155742
#        174632
#        202037
#        216402
#        233867
#
# Disc length: 3241 seconds
#
# Revision: 1
# Processed by: cddbd v1.5.2PL0 Copyright (c) Steve Scherf et al.
# Submitted via: ExactAudioCopy v0.95a3
#
DISCID=be0ca70e
DTITLE=Sky High - ...Still Rockin'...
DYEAR=1982
DGENRE=Blues
TTITLE0=Danger in the Night
TTITLE1=Autumn City Nights
TTITLE2=We Ain't Gettin' Old
TTITLE3=Starting Over Again
TTITLE4=On the Outside Blues
TTITLE5=I'm Still Rockin'
TTITLE6=Fallen Angel
TTITLE7=Hard Working Man
TTITLE8=Love Your Life
TTITLE9=Restless Love
TTITLE10=Ramblin On My Mind (Bonus Track)
TTITLE11=Autumn City Nights (Bonus Track)
TTITLE12=On the Outside Blues (Bonus Track)
TTITLE13=We Ain't Getttin' Old (Bonus Track)
EXTD=
EXTT0=
EXTT1=
EXTT2=
EXTT3=
EXTT4=
EXTT5=
EXTT6=
EXTT7=
EXTT8=
EXTT9=
EXTT10=
EXTT11=
EXTT12=
EXTT13=
PLAYORDER=
